# xmcd
#
# Track frame offsets:
# 182
# 18477
# 38730
# 61477
# 81475
# 104760
# 122087
# 148605
# 169677
# 193112
#
# Disc length: 2901 seconds
#
# Revision: 0
# Processed by: cddbd v1.5.2PL0 Copyright (c) Steve Scherf et al.
# Submitted via: MacMP3 Pro 5.0 (http://mp3.act2.co.jp/)
#
DISCID=8f0b530a
DTITLE=Shiro - Can we talk
DYEAR=1900
DGENRE=
TTITLE0=Feel the funk
TTITLE1=Tell me
TTITLE2=Good lovin'
TTITLE3=Can we talk
TTITLE4=U don't hear me
TTITLE5=After the sex
TTITLE6=Lay down
TTITLE7=Hip Hop R&B
TTITLE8=Man of dreams
TTITLE9=Summer daze
EXTD=
EXTT0=
EXTT1=
EXTT2=
EXTT3=
EXTT4=
EXTT5=
EXTT6=
EXTT7=
EXTT8=
EXTT9=
PLAYORDER=
